<mxfile host="app.diagrams.net" modified="2023-05-08T09:10:02.739Z" agent="Mozilla/5.0 (Windows NT 10.0; Win64; x64) AppleWebKit/537.36 (KHTML, like Gecko) Chrome/112.0.0.0 Safari/537.36" etag="7MYZ1xT6jU93pTLD_QhE" version="21.2.9" type="device">
  <diagram name="Page-1" id="8IUpi8fCj76MoTc1kDwq">
    <mxGraphModel dx="1434" dy="834" grid="1" gridSize="10" guides="1" tooltips="1" connect="1" arrows="1" fold="1" page="1" pageScale="1" pageWidth="827" pageHeight="1169" math="0" shadow="0">
      <root>
        <mxCell id="0" />
        <mxCell id="1" parent="0" />
        <mxCell id="TgMBJn69id-TEDwcf5Pm-1" value="Guest" style="shape=umlActor;verticalLabelPosition=bottom;verticalAlign=top;html=1;outlineConnect=0;" parent="1" vertex="1">
          <mxGeometry x="90" y="490" width="90" height="190" as="geometry" />
        </mxCell>
        <mxCell id="TgMBJn69id-TEDwcf5Pm-11" value="Consultation des différentes locations" style="ellipse;whiteSpace=wrap;html=1;" parent="1" vertex="1">
          <mxGeometry x="360" y="580" width="120" height="80" as="geometry" />
        </mxCell>
        <mxCell id="TgMBJn69id-TEDwcf5Pm-12" value="&lt;span style=&quot;text-indent: -18pt; background-color: initial;&quot; lang=&quot;FR&quot;&gt;Filtrage des différentes locations en fonction de leurs attributs&lt;/span&gt;" style="ellipse;whiteSpace=wrap;html=1;" parent="1" vertex="1">
          <mxGeometry x="240" y="760" width="120" height="80" as="geometry" />
        </mxCell>
        <mxCell id="TgMBJn69id-TEDwcf5Pm-14" value="&lt;span style=&quot;color: rgb(0, 0, 0); font-family: Helvetica; font-size: 12px; font-style: normal; font-variant-ligatures: normal; font-variant-caps: normal; font-weight: 400; letter-spacing: normal; orphans: 2; text-align: left; text-indent: 0px; text-transform: none; widows: 2; word-spacing: 0px; -webkit-text-stroke-width: 0px; background-color: rgb(251, 251, 251); text-decoration-thickness: initial; text-decoration-style: initial; text-decoration-color: initial; float: none; display: inline !important;&quot;&gt;Recherche&lt;/span&gt;&lt;br style=&quot;border-color: var(--border-color); color: rgb(0, 0, 0); font-family: Helvetica; font-size: 12px; font-style: normal; font-variant-ligatures: normal; font-variant-caps: normal; font-weight: 400; letter-spacing: normal; orphans: 2; text-align: left; text-indent: 0px; text-transform: none; widows: 2; word-spacing: 0px; -webkit-text-stroke-width: 0px; background-color: rgb(251, 251, 251); text-decoration-thickness: initial; text-decoration-style: initial; text-decoration-color: initial;&quot;&gt;&lt;span style=&quot;color: rgb(0, 0, 0); font-family: Helvetica; font-size: 12px; font-style: normal; font-variant-ligatures: normal; font-variant-caps: normal; font-weight: 400; letter-spacing: normal; orphans: 2; text-align: left; text-indent: 0px; text-transform: none; widows: 2; word-spacing: 0px; -webkit-text-stroke-width: 0px; background-color: rgb(251, 251, 251); text-decoration-thickness: initial; text-decoration-style: initial; text-decoration-color: initial; float: none; display: inline !important;&quot;&gt;simple de locations en fonction du lieu&lt;/span&gt;" style="ellipse;whiteSpace=wrap;html=1;" parent="1" vertex="1">
          <mxGeometry x="310" y="670" width="120" height="80" as="geometry" />
        </mxCell>
        <mxCell id="TgMBJn69id-TEDwcf5Pm-15" value="&lt;span style=&quot;text-indent: -18pt; background-color: initial;&quot; lang=&quot;FR&quot;&gt;Connexion&lt;/span&gt;" style="ellipse;whiteSpace=wrap;html=1;" parent="1" vertex="1">
          <mxGeometry x="310" y="400" width="120" height="80" as="geometry" />
        </mxCell>
        <mxCell id="TgMBJn69id-TEDwcf5Pm-16" value="&lt;span style=&quot;text-indent: -18pt; background-color: initial;&quot; lang=&quot;FR&quot;&gt;Création d&#39;un compte&lt;br&gt;&lt;/span&gt;" style="ellipse;whiteSpace=wrap;html=1;" parent="1" vertex="1">
          <mxGeometry x="230" y="310" width="120" height="80" as="geometry" />
        </mxCell>
        <mxCell id="TgMBJn69id-TEDwcf5Pm-28" value="" style="endArrow=none;html=1;rounded=0;entryX=0.5;entryY=0;entryDx=0;entryDy=0;" parent="1" target="TgMBJn69id-TEDwcf5Pm-12" edge="1">
          <mxGeometry width="50" height="50" relative="1" as="geometry">
            <mxPoint x="190" y="590" as="sourcePoint" />
            <mxPoint x="160" y="1085" as="targetPoint" />
          </mxGeometry>
        </mxCell>
        <mxCell id="TgMBJn69id-TEDwcf5Pm-29" value="" style="endArrow=none;html=1;rounded=0;entryX=0;entryY=0;entryDx=0;entryDy=0;" parent="1" target="TgMBJn69id-TEDwcf5Pm-14" edge="1">
          <mxGeometry width="50" height="50" relative="1" as="geometry">
            <mxPoint x="190" y="590" as="sourcePoint" />
            <mxPoint x="300" y="590" as="targetPoint" />
          </mxGeometry>
        </mxCell>
        <mxCell id="TgMBJn69id-TEDwcf5Pm-30" value="" style="endArrow=none;html=1;rounded=0;entryX=0;entryY=0.5;entryDx=0;entryDy=0;" parent="1" target="TgMBJn69id-TEDwcf5Pm-11" edge="1">
          <mxGeometry width="50" height="50" relative="1" as="geometry">
            <mxPoint x="190" y="590" as="sourcePoint" />
            <mxPoint x="180" y="1105" as="targetPoint" />
          </mxGeometry>
        </mxCell>
        <mxCell id="TgMBJn69id-TEDwcf5Pm-31" value="" style="endArrow=none;html=1;rounded=0;entryX=0.092;entryY=0.813;entryDx=0;entryDy=0;entryPerimeter=0;" parent="1" target="TgMBJn69id-TEDwcf5Pm-5" edge="1">
          <mxGeometry width="50" height="50" relative="1" as="geometry">
            <mxPoint x="190" y="590" as="sourcePoint" />
            <mxPoint x="190" y="1115" as="targetPoint" />
          </mxGeometry>
        </mxCell>
        <mxCell id="TgMBJn69id-TEDwcf5Pm-32" value="" style="endArrow=none;html=1;rounded=0;entryX=0.5;entryY=1;entryDx=0;entryDy=0;" parent="1" target="TgMBJn69id-TEDwcf5Pm-16" edge="1">
          <mxGeometry width="50" height="50" relative="1" as="geometry">
            <mxPoint x="190" y="590" as="sourcePoint" />
            <mxPoint x="210" y="430" as="targetPoint" />
          </mxGeometry>
        </mxCell>
        <mxCell id="TgMBJn69id-TEDwcf5Pm-37" value="" style="endArrow=none;html=1;rounded=0;entryX=0.058;entryY=0.775;entryDx=0;entryDy=0;entryPerimeter=0;" parent="1" target="TgMBJn69id-TEDwcf5Pm-15" edge="1">
          <mxGeometry width="50" height="50" relative="1" as="geometry">
            <mxPoint x="190" y="590" as="sourcePoint" />
            <mxPoint x="520" y="540" as="targetPoint" />
          </mxGeometry>
        </mxCell>
        <mxCell id="3RzC1rVonTzXPykNyhLz-1" value="" style="endArrow=none;html=1;rounded=0;entryX=0.967;entryY=0.725;entryDx=0;entryDy=0;entryPerimeter=0;" edge="1" parent="1" target="TgMBJn69id-TEDwcf5Pm-5">
          <mxGeometry width="50" height="50" relative="1" as="geometry">
            <mxPoint x="360" y="530" as="sourcePoint" />
            <mxPoint x="410" y="588" as="targetPoint" />
          </mxGeometry>
        </mxCell>
        <mxCell id="TgMBJn69id-TEDwcf5Pm-5" value="Consultation&lt;br&gt;d’une page d’accueil et de présentation de la plateforme" style="ellipse;whiteSpace=wrap;html=1;" parent="1" vertex="1">
          <mxGeometry x="360" y="490" width="120" height="80" as="geometry" />
        </mxCell>
      </root>
    </mxGraphModel>
  </diagram>
</mxfile>
